inDegrees=yes
name=ik_S40_A06_T01
DataType=double
version=3
OpenSimVersion=4.3-2021-08-27-4bc7ad9
endheader
time	pelvis_tilt	pelvis_list	pelvis_rotation	pelvis_tx	pelvis_ty	pelvis_tz	hip_flexion_r	hip_adduction_r	hip_rotation_r	knee_angle_r	knee_angle_r_beta	ankle_angle_r	subtalar_angle_r	mtp_angle_r	hip_flexion_l	hip_adduction_l	hip_rotation_l	knee_angle_l	knee_angle_l_beta	ankle_angle_l	subtalar_angle_l	mtp_angle_l	lumbar_extension	lumbar_bending	lumbar_rotation	arm_flex_r	arm_add_r	arm_rot_r	elbow_flex_r	pro_sup_r	wrist_flex_r	wrist_dev_r	arm_flex_l	arm_add_l	arm_rot_l	elbow_flex_l	pro_sup_l	wrist_flex_l	wrist_dev_l
10.19999999999987	-7.027829255443511	-1.845581207592619	41.22646708604301	0	0.9399999999999999	0	34.21044136175233	-9.69184703971028	-9.167655690882892	40.14327714699842	0.7006323587557182	0	0	0	34.21044136175233	-9.69184703971028	-9.167655690882892	40.14327714699842	0.7006323587557182	0	0	0	-5.322823464332181	1.072801197719521	-1.921902514377148	21.04549749591845	-7.069466293519359	11.05175419599468	53.45089822883525	151.1380417919676	0	0	63.51748351765345	-2.465046489598403	-10.32085807350325	32.81950312271226	102.3314211712733	0	0
10.21999999999987	-7.006973456075207	-1.86411077712421	41.08446247761266	0	0.9399999999999999	0	34.21484296845789	-9.692276781021993	-9.168400675115963	40.14747177784541	0.7007055688749039	0	0	0	34.21484296845789	-9.692276781021993	-9.168400675115963	40.14747177784541	0.7007055688749039	0	0	0	-5.316480043420325	1.030144726323572	-1.789611421423863	20.99513789101338	-7.258844354677624	11.06119078980171	53.45019372162812	151.1446126878331	0	0	63.84484694888319	-2.104538207986192	-9.430097825295389	31.85530790655678	100.855913204379	0	0
10.23999999999987	-6.948449892088838	-1.888879947752911	41.06704932090803	0	0.9399999999999999	0	34.21927296305687	-9.692707246832287	-9.169148275389725	40.15170856647048	0.7007795147861223	0	0	0	34.21927296305687	-9.692707246832287	-9.169148275389725	40.15170856647048	0.7007795147861223	0	0	0	-5.289458798436517	0.9764158029044024	-1.817074055262908	20.93826730480868	-7.200509725239628	11.09469744639396	53.34661189370696	151.4376585795252	0	0	63.79311667732315	-2.220394056329679	-9.349416349924454	31.58042359267618	100.873067390655	0	0
10.25999999999987	-6.896682229614105	-1.882443591132652	40.90875798264744	0	0.9399999999999999	0	34.29228678135187	-9.697745935080654	-9.179136543379649	40.24025244262884	0.7023248969575638	0	0	0	34.29228678135187	-9.697745935080654	-9.179136543379649	40.24025244262884	0.7023248969575638	0	0	0	-5.251130528962939	0.9462441884976647	-1.693601890575496	20.86439748543594	-7.22495512032665	11.12717151686926	53.30335126570918	151.4786882154575	0	0	63.70485066996625	-2.168444447154315	-7.025183096186539	30.85050414533016	100.6371659363075	0	0
10.27999999999987	-6.868349775797007	-1.848282990148123	40.83446733536678	0	0.9399999999999999	0	34.29705588191386	-9.698205944580469	-9.179938553000374	40.24480321532128	0.7024043229245567	0	0	0	34.29705588191386	-9.698205944580469	-9.179938553000374	40.24480321532128	0.7024043229245567	0	0	0	-5.207815410103694	0.9540938607883189	-1.690002823550159	20.79295062021248	-7.228069842390053	11.19476157652981	53.27999059872649	151.4804966972229	0	0	63.61117608925466	-2.313063095116171	-6.664834048301058	30.61939700585595	100.2469951322128	0	0
10.29999999999987	-6.841104688816275	-1.78403020810085	40.77332183245169	0	0.9399999999999999	0	34.3001055090016	-9.698497446135073	-9.180448441243923	40.24773602655651	0.7024555101369511	0	0	0	34.3001055090016	-9.698497446135073	-9.180448441243923	40.24773602655651	0.7024555101369511	0	0	0	-5.145469314500824	0.985159072703033	-1.682643998595611	20.67802858624686	-7.352800498582472	11.26399312504833	53.24213927969272	151.429488017379	0	0	63.45805218975864	-2.446757228811193	-6.444241209301885	30.34534940525751	100.01011846359	0	0
10.31999999999987	-6.815690116820915	-1.753588805087038	40.73264091466739	0	0.9399999999999999	0	34.30366632035673	-9.698838201628634	-9.181044310431847	40.25115497344575	0.702515182017119	0	0	0	34.30366632035673	-9.698838201628634	-9.181044310431847	40.25115497344575	0.702515182017119	0	0	0	-5.106773933628986	0.9925498833733614	-1.683798325883247	20.57565183728612	-7.411046888324115	11.30482233170737	53.25610576135151	151.3705827690483	0	0	63.41835579912473	-2.603367019094405	-6.240002941999707	30.09951960604604	99.85395932238151	0	0
10.33999999999987	-6.806817172530593	-1.738279774493883	40.73731284203513	0	0.9399999999999999	0	34.30656899212693	-9.699115104671291	-9.181529115308123	40.2539483146805	0.7025639350187972	0	0	0	34.30656899212693	-9.699115104671291	-9.181529115308123	40.2539483146805	0.7025639350187972	0	0	0	-5.091383894409907	1.003649651966096	-1.727939377677703	20.52585705087047	-7.45554100904905	11.32122730751149	53.29877896246812	151.36798926219	0	0	63.5194536360524	-2.803941955910034	-6.302620387123314	30.00444739695667	100.0878461937787	0	0
10.35999999999987	-6.771646812742157	-1.729343135223939	40.7482679665774	0	0.9399999999999999	0	34.31022953009985	-9.699466460936785	-9.182143045347567	40.25744856515757	0.7026250259142667	0	0	0	34.31022953009985	-9.699466460936785	-9.182143045347567	40.25744856515757	0.7026250259142667	0	0	0	-5.060650051963421	0.9950538566726034	-1.79423316166563	20.43819585618939	-7.445964502565243	11.32615055048183	53.30903641520044	151.3532331502124	0	0	63.5557066809457	-3.070554394332396	-6.544210346601834	30.22716772565792	100.3046071715463	0	0
10.37999999999987	-6.71863840457342	-1.777293844161202	40.78040205361884	0	0.9399999999999999	0	34.31333321522727	-9.699763474528414	-9.182662629033427	40.26042279462308	0.7026769360111496	0	0	0	34.31333321522727	-9.699763474528414	-9.182662629033427	40.26042279462308	0.7026769360111496	0	0	0	-5.053520608392403	0.9320017946853456	-1.867096356478961	20.39752149362824	-7.303573749758437	11.23955602273336	53.30387483830793	151.3728785098463	0	0	63.5041044955351	-3.42105122380919	-6.727560630501912	30.56418724374569	100.3666661076251	0	0
10.39999999999987	-6.701237492217675	-1.827563185640124	40.88072051722282	0	0.9399999999999999	0	34.31799904200172	-9.700210377417386	-9.183444294584174	40.26488718421812	0.7027548543086747	0	0	0	34.31799904200172	-9.700210377417386	-9.183444294584174	40.26488718421812	0.7027548543086747	0	0	0	-5.075623168390777	0.8934123990263054	-1.96390113571682	20.43482148336133	-7.189087882497792	11.03072163734055	53.29607276793086	151.4729520011412	0	0	63.25970008175039	-3.841150976623543	-7.062283374272901	31.52673083827483	100.4768698657998	0	0
10.41999999999987	-6.700295580578399	-1.852343975153031	40.82270980081837	0	0.9399999999999999	0	34.321383321031	-9.700535184413134	-9.184012086369837	40.26811713009086	0.7028112274988152	0	0	0	34.321383321031	-9.700535184413134	-9.184012086369837	40.26811713009086	0.7028112274988152	0	0	0	-5.089736314210806	0.8670167770316937	-1.896007071019861	20.51578855048679	-7.081381846500612	10.51846680945175	53.26292660085937	151.7722813998934	0	0	63.28887926666231	-3.808392770346672	-7.04080339485611	32.09637924260095	100.1076456665282	0	0
10.43999999999987	-6.670071254509148	-1.89124195573787	40.88368731759422	0	0.9399999999999999	0	34.32483576042025	-9.700856286712543	-9.184579643117717	40.27150637229146	0.7028703809343632	0	0	0	34.32483576042025	-9.700856286712543	-9.184579643117717	40.27150637229146	0.7028703809343632	0	0	0	-5.094543664072685	0.828567125999728	-1.991150693195666	20.54736317884552	-6.944390630113438	10.22028312958789	53.22910497985029	151.9986717621847	0	0	62.50405716916862	-4.237801619315854	-7.216994940281933	33.84399865864092	98.92435005927665	0	0
10.45999999999987	-6.684307836699554	-1.96470292108768	40.98747483168937	0	0.9399999999999999	0	34.3295401542068	-9.701305126035884	-9.185366108012285	40.27601429986611	0.7029490591129823	0	0	0	34.3295401542068	-9.701305126035884	-9.185366108012285	40.27601429986611	0.7029490591129823	0	0	0	-5.157970219176746	0.7990667916107073	-2.128733042426661	20.6701605587081	-6.840997263193511	10.20600271243282	53.23352667757294	151.939492690108	0	0	61.0903837327398	-4.81584970079037	-7.28875452055421	36.13006325593128	98.24275533900254	0	0
10.47999999999987	-6.701909314962855	-2.036775876204071	41.63241604599642	0	0.9399999999999999	0	34.35333675017422	-9.703571013306208	-9.189343381075444	40.29874108249469	0.7033457162982362	0	0	0	34.35333675017422	-9.703571013306208	-9.189343381075444	40.29874108249469	0.7033457162982362	0	0	0	-5.242533819908949	0.8432163776336551	-2.803106861803279	20.82715189466303	-6.789457848940524	10.20937608640885	53.19826829172985	151.8472414276784	0	0	56.98427239221893	-5.294165072577439	-9.695412004292363	45.80441160903243	101.5225406259031	0	0
10.49999999999986	-6.722673269194858	-2.109932364736815	42.163243661516	0	0.9399999999999999	0	34.35877174420356	-9.704084835706491	-9.190247545021599	40.30396607455108	0.7034369096130108	0	0	0	34.35877174420356	-9.704084835706491	-9.190247545021599	40.30396607455108	0.7034369096130108	0	0	0	-5.322464172362601	0.8611375161543485	-3.327068298460147	20.9759636925798	-6.782199030056153	9.57244049253846	53.25689530240096	152.1324446788721	0	0	54.84520447915592	-5.74646506205625	-11.95230759491878	51.29682951638695	105.0184517859546	0	0
